<?xml version="1.0" standalone="no"?>
<!DOCTYPE svg PUBLIC "-//W3C//DTD SVG 20010904//EN"
 "http://www.w3.org/TR/2001/REC-SVG-20010904/DTD/svg10.dtd">
<svg version="1.0" xmlns="http://www.w3.org/2000/svg"
 width="595.000000pt" height="595.000000pt" viewBox="0 0 595.000000 595.000000"
 preserveAspectRatio="xMidYMid meet">
<metadata>
Created by potrace 1.14, written by Peter Selinger 2001-2017
</metadata>
<g transform="translate(0.000000,595.000000) scale(0.100000,-0.100000)"
fill="#000000" stroke="none">
<path d="M2768 5946 c-1 -2 -37 -6 -78 -9 -41 -4 -84 -8 -95 -11 -11 -2 -47
-7 -80 -11 -32 -3 -62 -8 -65 -10 -3 -1 -26 -6 -53 -9 -26 -4 -58 -11 -71 -16
-13 -5 -43 -12 -66 -15 -23 -3 -54 -11 -69 -17 -14 -5 -35 -12 -45 -14 -30 -6
-240 -76 -251 -84 -5 -3 -32 -15 -60 -25 -77 -27 -299 -140 -410 -208 -536
-328 -963 -828 -1199 -1403 -71 -173 -129 -360 -160 -519 -9 -44 -19 -91 -21
-105 -27 -134 -40 -293 -40 -505 0 -225 9 -344 36 -500 5 -33 12 -70 14 -83 2
-12 6 -30 9 -40 3 -9 7 -28 10 -42 27 -155 125 -438 223 -640 249 -519 659
-966 1153 -1261 380 -226 808 -366 1255 -408 96 -9 514 -7 565 3 14 2 68 10
120 16 52 7 104 14 115 17 11 2 31 6 45 9 859 167 1622 733 2037 1509 109 204
210 462 258 655 31 126 35 150 59 300 25 155 30 234 31 450 0 254 -10 363 -55
590 -53 263 -131 490 -257 740 -41 80 -79 154 -86 164 -6 11 -32 51 -56 90
-313 502 -801 919 -1351 1154 -144 62 -353 133 -460 157 -107 23 -276 54 -330
60 -36 4 -76 10 -90 12 -30 5 -477 13 -482 9z"/>
</g>
</svg>
