<svg xmlns="http://www.w3.org/2000/svg" xmlns:xlink="http://www.w3.org/1999/xlink" width="500" zoomAndPan="magnify" viewBox="0 0 375 374.999991" height="500" preserveAspectRatio="xMidYMid meet" version="1.0"><defs><g><g id="id1"/><g id="id2"/><g id="id3"/><g id="id4"/><g id="id5"/><g id="id6"/><g id="id7"/><g id="id8"/><g id="id9"/><g id="id10"/></g><clipPath id="id11"><path d="M 81.414062 81.199219 L 293.664062 81.199219 L 293.664062 157.699219 L 81.414062 157.699219 Z M 81.414062 81.199219 " clip-rule="nonzero"/></clipPath><clipPath id="id12"><path d="M 81.332031 217.296875 L 293.582031 217.296875 L 293.582031 293.796875 L 81.332031 293.796875 Z M 81.332031 217.296875 " clip-rule="nonzero"/></clipPath></defs><g clip-path="url(#id11)"><path fill="rgb(0%, 0%, 0%)" d="M 187.539062 81.21875 C 218.445312 81.21875 246.421875 93.773438 266.675781 114.074219 C 278.765625 126.191406 288.101562 141.066406 293.664062 157.679688 L 292.035156 157.679688 C 286.527344 141.496094 277.386719 126.996094 265.582031 115.167969 C 245.609375 95.152344 218.015625 82.769531 187.539062 82.769531 C 157.058594 82.769531 129.464844 95.152344 109.492188 115.167969 C 97.691406 127 88.546875 141.496094 83.042969 157.679688 L 81.414062 157.679688 C 86.976562 141.070312 96.3125 126.191406 108.402344 114.074219 C 128.652344 93.777344 156.632812 81.21875 187.539062 81.21875 Z M 187.539062 81.21875 " fill-opacity="1" fill-rule="evenodd"/></g><g fill="rgb(0%, 0%, 0%)" fill-opacity="1"><g transform="translate(145.364303, 145.666478)"><g><path d="M 6.09375 -4.8125 L 2.1875 -9.75 L 3.03125 -4.1875 L 2.671875 -3.90625 L -2.5625 -6 L 1.34375 -1.0625 L 0.765625 -0.59375 L -3.984375 -6.609375 L -3.390625 -7.09375 L 2.21875 -4.84375 L 1.328125 -10.8125 L 1.9375 -11.296875 L 6.6875 -5.28125 Z M 6.09375 -4.8125 "/></g></g></g><g fill="rgb(0%, 0%, 0%)" fill-opacity="1"><g transform="translate(155.951904, 137.893493)"><g><path d="M -0.53125 -8.359375 L 0.046875 -8.65625 L 6.375 -3.28125 L 5.671875 -2.90625 L 3.6875 -4.59375 L 0.609375 -3.015625 L 0.828125 -0.421875 L 0.109375 -0.0625 Z M 3.25 -5.046875 L 0.140625 -7.71875 L 0.484375 -3.625 Z M 3.25 -5.046875 "/></g></g></g><g fill="rgb(0%, 0%, 0%)" fill-opacity="1"><g transform="translate(165.909394, 133.155002)"><g><path d="M 0.921875 -0.28125 L -1.34375 -7.609375 L 1.75 -8.5625 C 2.070312 -8.664062 2.382812 -8.691406 2.6875 -8.640625 C 2.988281 -8.585938 3.269531 -8.484375 3.53125 -8.328125 C 3.789062 -8.171875 4.015625 -7.972656 4.203125 -7.734375 C 4.398438 -7.492188 4.546875 -7.234375 4.640625 -6.953125 C 4.710938 -6.679688 4.75 -6.410156 4.75 -6.140625 C 4.75 -5.867188 4.707031 -5.609375 4.625 -5.359375 C 4.550781 -5.117188 4.429688 -4.898438 4.265625 -4.703125 C 4.109375 -4.503906 3.910156 -4.351562 3.671875 -4.25 L 6.359375 -1.96875 L 5.53125 -1.71875 L 2.984375 -3.875 L 0.8125 -3.203125 L 1.640625 -0.5 Z M 0.609375 -3.84375 L 3.015625 -4.59375 C 3.222656 -4.65625 3.394531 -4.757812 3.53125 -4.90625 C 3.675781 -5.0625 3.785156 -5.238281 3.859375 -5.4375 C 3.941406 -5.632812 3.988281 -5.84375 4 -6.0625 C 4.007812 -6.28125 3.984375 -6.5 3.921875 -6.71875 C 3.847656 -6.9375 3.738281 -7.132812 3.59375 -7.3125 C 3.445312 -7.488281 3.285156 -7.628906 3.109375 -7.734375 C 2.929688 -7.847656 2.734375 -7.921875 2.515625 -7.953125 C 2.304688 -7.984375 2.101562 -7.972656 1.90625 -7.921875 L -0.421875 -7.1875 Z M 0.609375 -3.84375 "/></g></g></g><g fill="rgb(0%, 0%, 0%)" fill-opacity="1"><g transform="translate(176.308308, 130.282503)"><g><path d="M 0.953125 -0.125 L -0.015625 -7.734375 L 0.734375 -7.828125 L 1.296875 -3.40625 L 4.9375 -8.359375 L 5.75 -8.46875 L 3.0625 -4.734375 L 6.875 -0.875 L 6.0625 -0.78125 L 2.65625 -4.234375 L 1.40625 -2.5625 L 1.703125 -0.21875 Z M 0.953125 -0.125 "/></g></g></g><g fill="rgb(0%, 0%, 0%)" fill-opacity="1"><g transform="translate(186.95023, 129.252979)"><g><path d="M 6.15625 -0.421875 L 6.125 0.25 L 0.96875 0.046875 L 1.28125 -7.625 L 6.328125 -7.421875 L 6.3125 -6.75 L 2.015625 -6.921875 L 1.890625 -4.15625 L 5.640625 -4.015625 L 5.625 -3.375 L 1.875 -3.515625 L 1.75 -0.59375 Z M 6.15625 -0.421875 "/></g></g></g><g fill="rgb(0%, 0%, 0%)" fill-opacity="1"><g transform="translate(197.257805, 129.990305)"><g><path d="M 7.703125 -5.53125 L 5.03125 -6.09375 L 3.59375 0.75 L 2.859375 0.59375 L 4.296875 -6.25 L 1.625 -6.8125 L 1.765625 -7.46875 L 7.84375 -6.1875 Z M 7.703125 -5.53125 "/></g></g></g><g fill="rgb(0%, 0%, 0%)" fill-opacity="1"><g transform="translate(207.385313, 132.52388)"><g><path d="M 0.90625 0.328125 L 3.484375 -6.890625 L 4.203125 -6.640625 L 1.625 0.578125 Z M 0.90625 0.328125 "/></g></g></g><g fill="rgb(0%, 0%, 0%)" fill-opacity="1"><g transform="translate(213.477552, 134.781812)"><g><path d="M 4.484375 -4.703125 L 1.515625 0.8125 L 0.859375 0.453125 L 4.5 -6.296875 L 5 -6.015625 L 6.4375 2.015625 L 9.46875 -3.609375 L 10.15625 -3.25 L 6.515625 3.5 L 5.921875 3.1875 Z M 4.484375 -4.703125 "/></g></g></g><g fill="rgb(0%, 0%, 0%)" fill-opacity="1"><g transform="translate(223.88392, 140.800778)"><g><path d="M 5.765625 3.234375 C 4.710938 3.378906 3.828125 3.160156 3.109375 2.578125 C 2.703125 2.253906 2.398438 1.867188 2.203125 1.421875 C 2.003906 0.984375 1.894531 0.519531 1.875 0.03125 C 1.863281 -0.457031 1.929688 -0.941406 2.078125 -1.421875 C 2.234375 -1.898438 2.46875 -2.328125 2.78125 -2.703125 C 3.101562 -3.097656 3.476562 -3.421875 3.90625 -3.671875 C 4.34375 -3.921875 4.796875 -4.085938 5.265625 -4.171875 C 5.734375 -4.253906 6.203125 -4.238281 6.671875 -4.125 C 7.148438 -4.019531 7.585938 -3.804688 7.984375 -3.484375 C 8.273438 -3.242188 8.515625 -2.992188 8.703125 -2.734375 C 8.890625 -2.472656 9.023438 -2.207031 9.109375 -1.9375 C 9.203125 -1.675781 9.253906 -1.410156 9.265625 -1.140625 C 9.285156 -0.867188 9.265625 -0.597656 9.203125 -0.328125 L 8.5 -0.40625 C 8.601562 -0.925781 8.566406 -1.398438 8.390625 -1.828125 C 8.210938 -2.265625 7.925781 -2.640625 7.53125 -2.953125 C 7.207031 -3.222656 6.859375 -3.394531 6.484375 -3.46875 C 6.109375 -3.550781 5.726562 -3.550781 5.34375 -3.46875 C 4.957031 -3.394531 4.597656 -3.242188 4.265625 -3.015625 C 3.929688 -2.796875 3.632812 -2.53125 3.375 -2.21875 C 3.09375 -1.875 2.882812 -1.503906 2.75 -1.109375 C 2.613281 -0.710938 2.554688 -0.320312 2.578125 0.0625 C 2.597656 0.445312 2.6875 0.816406 2.84375 1.171875 C 3.007812 1.523438 3.25 1.832031 3.5625 2.09375 C 3.90625 2.363281 4.296875 2.546875 4.734375 2.640625 C 5.179688 2.734375 5.691406 2.726562 6.265625 2.625 L 7.0625 1.640625 L 5.71875 0.546875 L 6.09375 0.078125 L 7.921875 1.5625 L 5.546875 4.5 L 5.0625 4.109375 Z M 5.765625 3.234375 "/></g></g></g><g fill="rgb(0%, 0%, 0%)" fill-opacity="1"><g transform="translate(32.781548, 200.116408)"><g><path d="M 9.050781 6.625 C 11.699219 5.824219 14.222656 4.722656 16.722656 3.648438 C 17.023438 3.523438 17.222656 3.5 17.5 3.648438 C 20.546875 5.300781 23.773438 6.097656 27.246094 5.625 C 29.246094 5.347656 31.148438 4.800781 32.773438 3.5 C 33.472656 2.949219 33.996094 2.300781 34.296875 1.449219 C 34.621094 0.476562 34.347656 -0.351562 33.523438 -0.949219 C 32.597656 -1.625 31.523438 -1.773438 30.421875 -1.726562 C 28.496094 -1.648438 26.671875 -1.226562 24.847656 -0.648438 C 22.199219 0.148438 19.597656 1.175781 17.097656 2.351562 C 16.898438 2.449219 16.75 2.523438 16.523438 2.375 C 15.347656 1.601562 14.25 0.726562 13.375 -0.425781 C 11.875 -2.375 11.199219 -4.625 10.972656 -7.050781 C 10.75 -9.375 11.148438 -11.550781 12.5 -13.449219 C 14.625 -16.5 17.421875 -18.199219 21.273438 -17.625 C 22.648438 -17.421875 23.847656 -16.796875 24.523438 -15.523438 C 25.074219 -14.449219 25.796875 -13.5 26.421875 -12.472656 C 26.496094 -12.324219 26.621094 -12.199219 26.773438 -12.125 C 26.996094 -11.949219 27.273438 -11.847656 27.496094 -12.023438 C 27.695312 -12.199219 27.472656 -12.421875 27.398438 -12.597656 C 26.746094 -14 26.097656 -15.398438 25.546875 -16.847656 C 24.847656 -18.722656 24.347656 -20.648438 24.597656 -22.671875 C 24.847656 -24.597656 25.523438 -26.371094 27.171875 -27.546875 C 29.222656 -29.023438 30.722656 -28.746094 32.121094 -27.046875 C 32.148438 -27.023438 32.148438 -27.023438 32.171875 -26.996094 C 33.597656 -25.222656 34.445312 -23.222656 34.746094 -20.996094 C 34.773438 -20.671875 34.847656 -20.371094 34.972656 -20.097656 C 35.070312 -19.871094 35.269531 -19.796875 35.519531 -19.796875 C 35.769531 -19.796875 35.769531 -19.996094 35.820312 -20.171875 C 35.871094 -20.324219 35.871094 -20.472656 35.894531 -20.621094 C 35.921875 -23.574219 33.671875 -27.621094 31.546875 -28.621094 C 29.921875 -29.371094 28.320312 -29.371094 26.746094 -28.523438 C 24.546875 -27.347656 23.597656 -25.324219 23.199219 -22.996094 C 22.898438 -21.199219 23.246094 -19.449219 23.746094 -17.722656 C 23.773438 -17.574219 23.871094 -17.472656 23.796875 -17.324219 C 23.773438 -17.324219 23.722656 -17.324219 23.722656 -17.347656 C 23.648438 -17.375 23.574219 -17.421875 23.496094 -17.472656 C 21.746094 -18.546875 19.847656 -18.875 17.847656 -18.5 C 14.125 -17.796875 11.722656 -15.421875 10.347656 -12.023438 C 8.675781 -7.925781 10.050781 -2.476562 13.375 0.75 C 14.148438 1.5 15.023438 2.175781 16.023438 2.824219 C 13.296875 4.023438 10.675781 5.25 7.847656 6.023438 C 4.875 6.847656 2.125 6.925781 1.773438 3.824219 C 1.773438 3.199219 1.476562 3.050781 1.226562 3.050781 C 1.023438 3.023438 0.949219 3.199219 0.976562 3.398438 C 1.675781 7.300781 5.550781 7.675781 9.050781 6.625 Z M 22.324219 1.324219 C 24.898438 0.324219 27.496094 -0.550781 30.273438 -0.800781 C 30.898438 -0.851562 31.523438 -0.875 32.148438 -0.824219 C 33.023438 -0.726562 33.222656 -0.449219 33.097656 0.398438 C 32.972656 1.25 32.546875 1.949219 31.871094 2.5 C 30.746094 3.449219 29.398438 4.023438 27.972656 4.375 C 24.574219 5.199219 21.296875 4.847656 18.171875 3.273438 C 18.125 3.25 18.074219 3.199219 17.921875 3.125 C 19.449219 2.5 20.871094 1.875 22.324219 1.324219 Z M 22.324219 1.324219 "/></g></g></g><g fill="rgb(0%, 0%, 0%)" fill-opacity="1"><g transform="translate(69.525732, 200.116408)"><g><path d="M 11.25 -4.300781 C 10.097656 -3.726562 9.023438 -3.050781 8.050781 -2.199219 C 6.75 -1.101562 5.5 0.101562 4.25 1.273438 C 3.273438 2.226562 2.300781 3.175781 1.148438 3.925781 C 0.699219 4.222656 0.199219 4.449219 -0.324219 4.574219 C -0.800781 4.648438 -0.898438 4.597656 -1.101562 4.175781 C -1.273438 3.773438 -1.300781 3.351562 -1.300781 2.925781 C -1.351562 1.726562 -1 0.601562 -0.648438 -0.5 C -0.0234375 -2.398438 0.773438 -4.199219 1.675781 -5.949219 C 1.949219 -6.5 2.25 -7.023438 2.523438 -7.574219 L 2.550781 -7.574219 C 9.074219 -14.875 15.574219 -25.546875 15.722656 -27.347656 C 15.875 -27.746094 15.347656 -28.621094 14.921875 -28.273438 C 14.722656 -28.097656 14.5 -27.921875 14.324219 -27.722656 C 13.125 -26.398438 11.949219 -25.046875 10.824219 -23.648438 C 9.5 -22.023438 8.300781 -20.296875 7.148438 -18.523438 C 6 -16.699219 4.875 -14.898438 3.800781 -13.023438 C 2.574219 -10.925781 1.425781 -8.800781 0.351562 -6.625 C -0.375 -5.222656 -1.050781 -3.800781 -1.574219 -2.300781 C -2.074219 -0.851562 -2.425781 0.601562 -2.425781 2.148438 C -2.425781 2.75 -2.300781 3.300781 -2.074219 3.824219 C -1.675781 4.824219 -0.75 5.273438 0.300781 5 C 0.5 4.949219 0.699219 4.847656 0.898438 4.773438 C 1.523438 4.472656 2.050781 4.050781 2.574219 3.625 C 4.148438 2.351562 5.574219 0.949219 7.023438 -0.449219 C 7.722656 -1.101562 8.425781 -1.800781 9.148438 -2.449219 C 10 -3.199219 10.949219 -3.800781 12.074219 -4.300781 C 11.722656 -4.523438 11.472656 -4.425781 11.25 -4.300781 Z M 4.375 -10.972656 C 5.972656 -13.796875 7.675781 -16.546875 9.472656 -19.273438 C 10.898438 -21.398438 12.523438 -23.398438 14.097656 -25.421875 C 14.398438 -25.796875 14.699219 -26.171875 15 -26.546875 C 14.421875 -25.296875 13.25 -23.222656 11.425781 -20.347656 C 8.949219 -16.449219 6.175781 -12.648438 3.601562 -9.574219 C 3.851562 -10.050781 4.125 -10.523438 4.375 -10.972656 Z M 4.375 -10.972656 "/></g></g></g><g fill="rgb(0%, 0%, 0%)" fill-opacity="1"><g transform="translate(80.623972, 200.116408)"><g><path d="M 2 -6.023438 C 1.675781 -6.300781 1.398438 -6.300781 1.074219 -6 C 0.949219 -5.875 0.824219 -5.75 0.699219 -5.625 C -0.824219 -3.574219 -2.023438 -1.398438 -2.273438 1.199219 C -2.375 1.875 -2.351562 2.550781 -2.199219 3.226562 C -2.074219 3.75 -1.851562 4.273438 -1.5 4.722656 C -0.800781 5.550781 -0.0234375 5.648438 0.875 5.074219 C 1.023438 4.972656 1.175781 4.824219 1.324219 4.699219 C 2.601562 3.625 3.726562 2.398438 4.875 1.199219 C 6.273438 -0.273438 7.800781 -1.523438 9.648438 -2.425781 C 10.699219 -2.925781 11.699219 -3.476562 12.796875 -3.875 C 12.898438 -3.898438 13 -3.925781 12.972656 -4.050781 C 12.972656 -4.148438 12.875 -4.199219 12.773438 -4.199219 C 12.574219 -4.222656 12.421875 -4.148438 12.273438 -4.074219 C 11.699219 -3.824219 11.125 -3.574219 10.574219 -3.300781 C 9.472656 -2.773438 8.324219 -2.300781 7.273438 -1.625 C 5.75 -0.699219 4.449219 0.523438 3.226562 1.824219 C 2.523438 2.523438 1.898438 3.300781 1.074219 3.851562 C 0.601562 4.175781 0.148438 4.5 -0.449219 4.523438 C -0.898438 4.550781 -1.023438 4.449219 -1.125 4.023438 C -1.25 3.5 -1.25 2.976562 -1.199219 2.449219 C -1 0.5 -0.25 -1.273438 0.75 -2.949219 C 1.199219 -3.699219 1.675781 -4.375 2.125 -5.097656 C 2.351562 -5.472656 2.300781 -5.773438 2 -6.023438 Z M 3.148438 -7.25 C 3.375 -7.175781 3.523438 -7.324219 3.5 -7.550781 C 3.5 -7.925781 3.074219 -8.300781 2.648438 -8.347656 C 2.425781 -8.375 2.300781 -8.222656 2.375 -8 C 2.5 -7.625 2.800781 -7.375 3.148438 -7.25 Z M 3.148438 -7.25 "/></g></g></g><g fill="rgb(0%, 0%, 0%)" fill-opacity="1"><g transform="translate(93.246976, 200.116408)"><g><path d="M 17.921875 -4.300781 C 17.796875 -4.25 17.699219 -4.148438 17.597656 -4.074219 C 17.097656 -3.625 16.574219 -3.175781 16.046875 -2.75 C 15.046875 -1.925781 14 -1.125 12.847656 -0.449219 C 10.800781 0.824219 8.523438 1.601562 6.222656 2.25 C 4.722656 2.675781 3.226562 3.101562 1.875 3.851562 C 1.523438 4.023438 1.199219 4.222656 0.851562 4.398438 C 0.851562 4.324219 0.824219 4.300781 0.851562 4.273438 C 0.875 4.175781 0.925781 4.097656 0.976562 4.023438 C 2.898438 1.25 5.125 -1.25 7.523438 -3.574219 C 7.898438 -3.925781 8.222656 -4.398438 8.699219 -4.597656 C 9.199219 -4.800781 9.773438 -4.625 10.324219 -4.597656 C 10.425781 -4.597656 10.597656 -4.523438 10.648438 -4.722656 C 10.300781 -5.125 9.722656 -4.875 9.273438 -5.199219 C 9.949219 -5.773438 10.574219 -6.324219 11.222656 -6.847656 C 12.125 -7.574219 13.046875 -8.273438 13.972656 -8.972656 C 14.25 -9.199219 14.273438 -9.300781 14.046875 -9.574219 C 13.921875 -9.773438 13.722656 -9.847656 13.5 -9.824219 C 13.375 -9.824219 13.25 -9.773438 13.125 -9.75 C 11.125 -9.25 9.097656 -8.875 7.050781 -8.824219 C 6.125 -8.800781 5.175781 -8.824219 4.25 -8.675781 C 3.273438 -8.5 2.425781 -8.097656 1.699219 -7.398438 C 1.425781 -7.125 1.175781 -6.824219 1.023438 -6.472656 C 0.925781 -6.222656 1.050781 -6.023438 1.375 -5.925781 C 1.574219 -5.847656 1.75 -5.875 1.773438 -6.148438 C 1.824219 -6.398438 1.976562 -6.574219 2.125 -6.722656 C 2.75 -7.398438 3.476562 -7.875 4.398438 -8.074219 C 5.25 -8.25 6.125 -8.273438 7 -8.273438 C 8.648438 -8.300781 10.324219 -8.324219 11.949219 -8.800781 C 12 -8.824219 12.046875 -8.824219 12.097656 -8.75 C 12.074219 -8.597656 11.921875 -8.550781 11.824219 -8.472656 C 10.648438 -7.597656 9.523438 -6.625 8.425781 -5.648438 C 8.050781 -5.300781 7.675781 -5.097656 7.148438 -5.125 C 6.597656 -5.148438 6.023438 -5.125 5.5 -4.898438 C 5.347656 -4.824219 5.097656 -4.800781 5.199219 -4.550781 C 5.25 -4.375 5.449219 -4.324219 5.625 -4.347656 C 5.773438 -4.375 5.925781 -4.425781 6.074219 -4.472656 C 6.398438 -4.574219 6.75 -4.648438 7.125 -4.597656 C 7.074219 -4.347656 6.925781 -4.273438 6.824219 -4.175781 C 5 -2.324219 3.199219 -0.5 1.648438 1.550781 C 0.226562 3.398438 -1.050781 5.324219 -2.273438 7.300781 C -2.5 7.699219 -2.824219 8.074219 -3.023438 8.472656 C -3.148438 8.722656 -3.101562 8.875 -2.875 9 C -2.574219 9.199219 -2.375 9.175781 -2.148438 8.847656 C -2 8.648438 -1.875 8.449219 -1.726562 8.222656 C -1.5 7.875 -1.300781 7.472656 -1.023438 7.175781 C 0.273438 5.75 1.800781 4.648438 3.550781 3.875 C 5.097656 3.199219 6.75 2.800781 8.347656 2.25 C 10.222656 1.601562 12.074219 0.851562 13.75 -0.25 C 14.722656 -0.851562 15.574219 -1.601562 16.472656 -2.324219 C 17.097656 -2.824219 17.699219 -3.351562 18.25 -3.898438 C 18.324219 -3.972656 18.421875 -4.074219 18.347656 -4.199219 C 18.222656 -4.347656 18.074219 -4.398438 17.921875 -4.300781 Z M 17.921875 -4.300781 "/></g></g></g><g fill="rgb(0%, 0%, 0%)" fill-opacity="1"><g transform="translate(111.044162, 200.116408)"><g><path d="M 1.75 -0.800781 C 1.800781 -0.273438 1.875 0.25 2.125 0.726562 C 2.976562 2.324219 4.675781 2.675781 6.097656 2.074219 C 8.972656 0.851562 14.375 -3.875 17.472656 -4.25 C 17.449219 -4.347656 17.449219 -4.398438 17.421875 -4.425781 C 16.574219 -5.375 8.898438 -0.101562 6.375 1.125 C 5.722656 1.449219 5.074219 1.726562 4.324219 1.726562 C 3.949219 1.699219 3.699219 1.550781 3.550781 1.199219 C 3.398438 0.851562 3.324219 0.476562 3.324219 0.0742188 C 3.300781 -0.824219 3.476562 -1.675781 3.824219 -2.523438 C 4.097656 -3.226562 4.523438 -3.851562 4.898438 -4.5 C 5.175781 -5.023438 5.125 -5.199219 4.597656 -5.449219 C 4.449219 -5.523438 4.300781 -5.625 4.148438 -5.574219 C 3.875 -5.472656 3.726562 -5.625 3.523438 -5.75 C 2.773438 -6.175781 2.023438 -6.273438 1.273438 -5.800781 C -0.523438 -4.675781 -1.351562 -2.976562 -1.300781 -0.898438 C -1.300781 -0.199219 -0.5 0.199219 0.148438 -0.101562 C 0.398438 -0.226562 0.625 -0.398438 0.800781 -0.601562 C 1.074219 -0.851562 1.351562 -1.125 1.648438 -1.425781 C 1.75 -1.175781 1.726562 -0.976562 1.75 -0.800781 Z M 0.351562 -1.101562 C 0.175781 -0.949219 -0.0234375 -0.824219 -0.300781 -0.625 C -0.300781 -1.175781 -0.199219 -1.574219 -0.0507812 -1.925781 C 0.398438 -3.074219 1.050781 -4.050781 2 -4.847656 C 2.175781 -5 2.398438 -5.097656 2.601562 -5.222656 C 2.726562 -5.300781 2.898438 -5.324219 3 -5.148438 C 3.101562 -5 3.199219 -4.875 3.074219 -4.675781 C 2.273438 -3.398438 1.5 -2.101562 0.351562 -1.101562 Z M 0.351562 -1.101562 "/></g></g></g><g fill="rgb(0%, 0%, 0%)" fill-opacity="1"><g transform="translate(127.916495, 200.116408)"><g><path d="M 6.472656 -15.546875 C 8.175781 -18.421875 9.949219 -21.222656 11.773438 -24.023438 C 12.074219 -24.472656 12.421875 -24.921875 12.648438 -25.449219 C 12.796875 -25.796875 12.648438 -25.996094 12.273438 -25.972656 C 12.074219 -25.972656 11.949219 -25.847656 11.847656 -25.699219 C 11.472656 -25.246094 11.097656 -24.773438 10.722656 -24.296875 C 9.75 -23.023438 8.925781 -21.648438 8.050781 -20.296875 C 6.675781 -18.199219 5.398438 -16.023438 4.175781 -13.824219 C 2.550781 -10.925781 1.074219 -7.949219 -0.199219 -4.847656 C -1 -2.898438 -1.773438 -0.949219 -2.449219 1.050781 C -2.601562 1.550781 -2.875 1.925781 -3.273438 2.273438 C -4 2.875 -4.648438 3.550781 -5.175781 4.375 C -5.574219 5.023438 -5.972656 5.722656 -6.023438 6.5 C -6.097656 7.597656 -5.523438 8.449219 -4.324219 8.597656 C -3.375 8.699219 -2.523438 8.472656 -1.699219 8.023438 C -0.398438 7.324219 0.601562 6.273438 1.476562 5.097656 C 3.023438 3 4.222656 0.699219 5.175781 -1.726562 C 5.273438 -2 5.398438 -2.175781 5.699219 -2.273438 C 7.175781 -2.824219 8.699219 -3.300781 10.222656 -3.699219 C 10.800781 -3.851562 11.375 -4 11.972656 -4.175781 C 11.824219 -4.425781 11.597656 -4.449219 11.398438 -4.449219 C 11.222656 -4.449219 11.050781 -4.425781 10.875 -4.398438 C 9.75 -4.148438 8.625 -3.851562 7.5 -3.550781 C 6.875 -3.375 6.273438 -3.199219 5.625 -3.023438 C 5.574219 -3.273438 5.675781 -3.449219 5.722656 -3.648438 C 5.824219 -4.25 5.847656 -4.847656 5.625 -5.425781 C 5.5 -5.773438 5.300781 -6.050781 4.949219 -6.199219 C 4.25 -6.472656 3.550781 -6.472656 2.898438 -6.050781 C 2.300781 -5.648438 1.75 -5.175781 1.273438 -4.648438 C 1.148438 -4.523438 1.050781 -4.347656 0.773438 -4.300781 C 1 -4.875 1.226562 -5.398438 1.449219 -5.925781 C 2.976562 -9.199219 4.648438 -12.421875 6.472656 -15.546875 Z M 3.476562 -0.875 C 2.550781 1.375 1.425781 3.550781 -0.101562 5.449219 C -0.925781 6.472656 -1.875 7.347656 -3.101562 7.898438 C -3.449219 8.050781 -3.800781 8.175781 -4.199219 8.175781 C -4.574219 8.148438 -4.824219 8 -5 7.675781 C -5.222656 7.222656 -5.300781 6.75 -5.148438 6.273438 C -4.773438 5 -3.972656 4.023438 -3.074219 3.101562 C -2.925781 2.976562 -2.800781 3.023438 -2.648438 3.074219 C -2.101562 3.175781 -1.976562 3.125 -1.75 2.625 C -1.699219 2.5 -1.625 2.398438 -1.601562 2.300781 C -1.550781 1.699219 -1.101562 1.375 -0.648438 1.074219 C 0.601562 0.199219 1.898438 -0.523438 3.25 -1.199219 C 3.351562 -1.25 3.425781 -1.300781 3.523438 -1.25 C 3.625 -1.125 3.523438 -1 3.476562 -0.875 Z M 2.425781 -4.523438 C 2.875 -4.949219 3.351562 -5.300781 3.875 -5.574219 C 4.125 -5.699219 4.25 -5.625 4.300781 -5.398438 C 4.375 -5.074219 4.398438 -4.773438 4.398438 -4.472656 C 4.375 -3.875 4.222656 -3.273438 4.097656 -2.699219 C 4.023438 -2.375 3.824219 -2.199219 3.550781 -2.074219 C 2.300781 -1.523438 1.101562 -0.851562 -0.0742188 -0.148438 C -0.324219 0 -0.523438 0.226562 -0.800781 0.273438 C -0.875 0.125 -0.824219 0.0234375 -0.773438 -0.0742188 C 0.125 -1.675781 1.074219 -3.25 2.425781 -4.523438 Z M 2.425781 -4.523438 "/></g></g></g><g fill="rgb(0%, 0%, 0%)" fill-opacity="1"><g transform="translate(139.264696, 200.116408)"><g><path d="M 4.800781 1.023438 C 7.148438 0.148438 12 -3.550781 16.671875 -4.175781 C 16.523438 -4.5 16.296875 -4.5 16.097656 -4.5 C 12.023438 -4.050781 6.675781 -0.523438 5.097656 0.226562 C 4.398438 0.550781 3.675781 0.773438 2.875 0.851562 C 2.300781 0.898438 1.773438 0.773438 1.375 0.300781 C 0.425781 -0.925781 0.351562 -2.199219 0.976562 -3.574219 C 1.101562 -3.851562 1.25 -4 1.601562 -3.898438 C 2.074219 -3.773438 2.550781 -3.800781 3.023438 -3.949219 C 4 -4.273438 4.800781 -4.875 5.523438 -5.574219 C 5.648438 -5.699219 5.722656 -5.824219 5.800781 -5.972656 C 6 -6.375 5.925781 -6.773438 5.550781 -7.050781 C 4.949219 -7.472656 4.300781 -7.722656 3.574219 -7.5 C 1.699219 -6.949219 0.273438 -5.847656 -0.425781 -3.972656 C -0.851562 -2.824219 -0.726562 -1.726562 -0.125 -0.726562 C 1.101562 1.273438 2.550781 1.875 4.800781 1.023438 Z M 4.75 -6.550781 C 4.449219 -5.625 2.824219 -4.597656 1.824219 -4.699219 C 2.226562 -5.574219 3.851562 -6.597656 4.75 -6.550781 Z M 4.75 -6.550781 "/></g></g></g><g fill="rgb(0%, 0%, 0%)" fill-opacity="1"><g transform="translate(155.562112, 200.116408)"><g><path d="M 13 -3.972656 C 12.773438 -4.222656 12.574219 -4.148438 12.375 -4.074219 C 12.046875 -3.925781 11.722656 -3.773438 11.425781 -3.574219 C 9.5 -2.324219 7.597656 -1.050781 5.75 0.351562 C 4.449219 1.351562 3.175781 2.425781 1.648438 3.125 C 0.574219 3.601562 -0.226562 3.125 -0.351562 1.949219 C -0.375 1.699219 -0.375 1.449219 -0.351562 1.199219 C -0.148438 -0.601562 0.226562 -2.375 0.898438 -4.023438 C 3.601562 -10.574219 7 -16.699219 10.925781 -22.574219 C 11.125 -22.847656 11.324219 -22.871094 11.597656 -22.824219 C 12.972656 -22.546875 14.324219 -22.273438 15.671875 -22.023438 C 19.746094 -21.296875 23.824219 -20.722656 27.945312 -21.347656 C 29.246094 -21.523438 30.621094 -21.648438 31.445312 -22.921875 C 31.496094 -23.046875 31.722656 -23.097656 31.597656 -23.273438 C 31.496094 -23.398438 31.320312 -23.371094 31.195312 -23.324219 C 30.972656 -23.246094 30.773438 -23.121094 30.648438 -22.921875 C 30.523438 -22.722656 30.371094 -22.574219 30.171875 -22.496094 C 29.621094 -22.347656 29.121094 -22.121094 28.570312 -22.046875 C 26.496094 -21.699219 24.421875 -21.597656 22.347656 -21.671875 C 18.773438 -21.796875 15.324219 -22.546875 11.847656 -23.222656 C 11.472656 -23.324219 11.523438 -23.449219 11.699219 -23.699219 C 12.222656 -24.449219 12.773438 -25.222656 13.296875 -25.996094 C 13.421875 -26.199219 13.648438 -26.421875 13.449219 -26.671875 C 13.273438 -26.898438 12.972656 -26.972656 12.671875 -26.949219 C 12.375 -26.898438 12.199219 -26.699219 12.023438 -26.496094 C 11.375 -25.699219 10.773438 -24.847656 10.222656 -23.996094 C 10.050781 -23.722656 9.875 -23.671875 9.574219 -23.722656 C 8.375 -23.972656 7.199219 -24.199219 6.023438 -24.398438 C 2.601562 -24.972656 -0.824219 -25.171875 -4.273438 -24.722656 C -5.847656 -24.523438 -7.398438 -24.171875 -8.824219 -23.449219 C -9.324219 -23.171875 -9.800781 -22.898438 -10.050781 -22.347656 C -10.25 -21.996094 -10.074219 -21.699219 -9.625 -21.546875 C -9.375 -21.472656 -9.023438 -21.296875 -9.125 -21.871094 C -9.148438 -21.949219 -9 -22.046875 -8.898438 -22.148438 C -8.425781 -22.597656 -7.847656 -22.898438 -7.222656 -23.097656 C -6.375 -23.398438 -5.472656 -23.648438 -4.574219 -23.796875 C 0.0742188 -24.523438 4.699219 -24.121094 9.300781 -23.246094 C 9.773438 -23.171875 9.523438 -22.972656 9.425781 -22.773438 C 8.675781 -21.621094 7.949219 -20.472656 7.222656 -19.324219 C 4.699219 -15.324219 2.199219 -11.273438 0.398438 -6.875 C -0.625 -4.398438 -1.273438 -1.800781 -1.375 0.898438 C -1.449219 3.125 0.300781 4.273438 2.324219 3.300781 C 3.023438 2.949219 3.699219 2.523438 4.347656 2.074219 C 7.222656 0.0742188 9.949219 -2.199219 13 -3.972656 Z M 13 -3.972656 "/></g></g></g><g fill="rgb(0%, 0%, 0%)" fill-opacity="1"><g transform="translate(167.91016, 200.116408)"><g><path d="M 15.222656 -3.898438 C 13.824219 -3.175781 12.523438 -2.324219 11.347656 -1.273438 C 9.800781 0.101562 8.449219 1.675781 7.050781 3.199219 C 6.324219 4 5.550781 4.773438 4.597656 5.300781 C 4.074219 5.625 3.800781 5.472656 3.726562 4.898438 C 3.699219 4.722656 3.699219 4.550781 3.726562 4.375 C 3.773438 4.023438 3.851562 3.675781 3.949219 3.351562 C 4.398438 1.875 5.050781 0.476562 5.773438 -0.898438 C 6.449219 -2.226562 7.148438 -3.550781 7.824219 -4.875 C 8.125 -5.449219 8.347656 -6.097656 8.472656 -6.722656 C 8.648438 -7.5 8.300781 -7.898438 7.5 -7.898438 C 7.050781 -7.875 6.675781 -7.675781 6.300781 -7.449219 C 5.125 -6.675781 4.097656 -5.675781 3.074219 -4.722656 C 2.300781 -4 1.550781 -3.226562 0.648438 -2.601562 C 0.675781 -3.351562 0.851562 -4.074219 1.101562 -4.75 C 2.023438 -7.300781 3.074219 -9.800781 4.273438 -12.222656 C 5 -13.796875 5.824219 -15.296875 6.648438 -16.796875 C 8.273438 -19.746094 10.023438 -22.648438 11.875 -25.449219 C 12.324219 -26.121094 12.722656 -26.847656 13.097656 -27.570312 C 13.273438 -27.921875 13.199219 -28.046875 12.824219 -28.171875 C 12.375 -28.320312 12.046875 -28.222656 11.75 -27.796875 C 11.148438 -26.921875 10.550781 -26.074219 9.972656 -25.222656 C 7.898438 -22.074219 5.972656 -18.847656 4.25 -15.523438 C 2.800781 -12.671875 1.425781 -9.800781 0.25 -6.824219 C -0.273438 -5.523438 -0.699219 -4.199219 -0.75 -2.800781 C -0.800781 -1.976562 -0.375 -1.601562 0.425781 -1.675781 C 0.726562 -1.699219 0.976562 -1.824219 1.226562 -2 C 1.476562 -2.226562 1.726562 -2.425781 1.949219 -2.648438 C 3.125 -3.75 4.25 -4.898438 5.472656 -5.925781 C 6 -6.347656 6.523438 -6.800781 7.148438 -7.050781 C 7.273438 -6.875 7.199219 -6.722656 7.125 -6.574219 C 7 -6.25 6.847656 -5.898438 6.699219 -5.574219 C 6.148438 -4.324219 5.398438 -3.199219 4.800781 -2 C 4.050781 -0.574219 3.324219 0.824219 2.925781 2.375 C 2.726562 3.199219 2.523438 4.023438 2.75 4.898438 C 2.925781 5.597656 3.300781 5.898438 4.023438 5.898438 C 4.597656 5.925781 5.097656 5.699219 5.523438 5.347656 C 6.050781 4.972656 6.523438 4.550781 6.972656 4.097656 C 8.125 2.925781 9.273438 1.773438 10.425781 0.574219 C 12.046875 -1.074219 13.773438 -2.574219 15.796875 -3.699219 C 15.921875 -3.773438 16.097656 -3.824219 16.046875 -4.023438 C 15.648438 -4.097656 15.648438 -4.097656 15.222656 -3.898438 Z M 15.222656 -3.898438 "/></g></g></g><g fill="rgb(0%, 0%, 0%)" fill-opacity="1"><g transform="translate(183.257728, 200.116408)"><g/></g></g><g fill="rgb(0%, 0%, 0%)" fill-opacity="1"><g transform="translate(193.256144, 200.116408)"><g><path d="M 1.601562 8.949219 C 2.625 10.398438 4.472656 11.023438 6.175781 10.472656 C 11.199219 8.898438 16.523438 -0.648438 22.371094 -0.25 C 22.546875 -0.273438 22.546875 -0.375 22.421875 -0.476562 C 22.296875 -0.574219 22.148438 -0.601562 21.996094 -0.625 C 16.398438 -0.976562 9.898438 8.925781 4.972656 9.972656 C 3.925781 10.175781 3.199219 9.875 2.625 9 C 2.25 8.449219 1.949219 7.847656 1.773438 7.199219 C 1.425781 5.972656 1.351562 4.699219 1.324219 3.023438 C 1.351562 0.976562 1.773438 -1.425781 2.5 -3.773438 C 3.824219 -8.023438 5.847656 -11.949219 8.175781 -15.722656 C 10.125 -18.898438 12.324219 -21.871094 15.148438 -24.324219 C 16.523438 -25.523438 18 -26.597656 19.699219 -27.246094 C 21.949219 -28.121094 23.421875 -27.398438 24.148438 -25.121094 C 24.671875 -23.398438 24.574219 -21.699219 23.996094 -20.046875 C 22.421875 -15.574219 19.546875 -12.148438 15.324219 -9.925781 C 14.523438 -9.472656 13.648438 -9.25 12.722656 -9.148438 C 12.222656 -9.097656 11.875 -9.324219 11.597656 -9.699219 C 11.523438 -9.800781 11.449219 -9.925781 11.398438 -10.023438 C 11.222656 -10.25 10.972656 -10.472656 10.722656 -10.324219 C 10.449219 -10.125 10.675781 -9.824219 10.824219 -9.625 C 11.375 -8.898438 12.097656 -8.5 13 -8.472656 C 14.171875 -8.449219 15.25 -8.773438 16.25 -9.324219 C 20.023438 -11.375 22.796875 -14.398438 24.648438 -18.273438 C 25.523438 -20.097656 25.949219 -22.046875 25.546875 -24.121094 C 25.121094 -26.273438 23.972656 -27.746094 21.722656 -28.222656 C 20.273438 -28.523438 18.972656 -28.121094 17.699219 -27.445312 C 15.296875 -26.171875 13.273438 -24.371094 11.550781 -22.296875 C 7.523438 -17.472656 4.398438 -12.097656 2.101562 -6.25 C 0.675781 -2.648438 -0.101562 1.074219 0.273438 5 C 0.398438 6.425781 0.773438 7.773438 1.601562 8.949219 Z M 1.601562 8.949219 "/></g></g></g><g fill="rgb(0%, 0%, 0%)" fill-opacity="1"><g transform="translate(218.727108, 200.116408)"><g><path d="M 15.222656 -3.898438 C 13.824219 -3.175781 12.523438 -2.324219 11.347656 -1.273438 C 9.800781 0.101562 8.449219 1.675781 7.050781 3.199219 C 6.324219 4 5.550781 4.773438 4.597656 5.300781 C 4.074219 5.625 3.800781 5.472656 3.726562 4.898438 C 3.699219 4.722656 3.699219 4.550781 3.726562 4.375 C 3.773438 4.023438 3.851562 3.675781 3.949219 3.351562 C 4.398438 1.875 5.050781 0.476562 5.773438 -0.898438 C 6.449219 -2.226562 7.148438 -3.550781 7.824219 -4.875 C 8.125 -5.449219 8.347656 -6.097656 8.472656 -6.722656 C 8.648438 -7.5 8.300781 -7.898438 7.5 -7.898438 C 7.050781 -7.875 6.675781 -7.675781 6.300781 -7.449219 C 5.125 -6.675781 4.097656 -5.675781 3.074219 -4.722656 C 2.300781 -4 1.550781 -3.226562 0.648438 -2.601562 C 0.675781 -3.351562 0.851562 -4.074219 1.101562 -4.75 C 2.023438 -7.300781 3.074219 -9.800781 4.273438 -12.222656 C 5 -13.796875 5.824219 -15.296875 6.648438 -16.796875 C 8.273438 -19.746094 10.023438 -22.648438 11.875 -25.449219 C 12.324219 -26.121094 12.722656 -26.847656 13.097656 -27.570312 C 13.273438 -27.921875 13.199219 -28.046875 12.824219 -28.171875 C 12.375 -28.320312 12.046875 -28.222656 11.75 -27.796875 C 11.148438 -26.921875 10.550781 -26.074219 9.972656 -25.222656 C 7.898438 -22.074219 5.972656 -18.847656 4.25 -15.523438 C 2.800781 -12.671875 1.425781 -9.800781 0.25 -6.824219 C -0.273438 -5.523438 -0.699219 -4.199219 -0.75 -2.800781 C -0.800781 -1.976562 -0.375 -1.601562 0.425781 -1.675781 C 0.726562 -1.699219 0.976562 -1.824219 1.226562 -2 C 1.476562 -2.226562 1.726562 -2.425781 1.949219 -2.648438 C 3.125 -3.75 4.25 -4.898438 5.472656 -5.925781 C 6 -6.347656 6.523438 -6.800781 7.148438 -7.050781 C 7.273438 -6.875 7.199219 -6.722656 7.125 -6.574219 C 7 -6.25 6.847656 -5.898438 6.699219 -5.574219 C 6.148438 -4.324219 5.398438 -3.199219 4.800781 -2 C 4.050781 -0.574219 3.324219 0.824219 2.925781 2.375 C 2.726562 3.199219 2.523438 4.023438 2.75 4.898438 C 2.925781 5.597656 3.300781 5.898438 4.023438 5.898438 C 4.597656 5.925781 5.097656 5.699219 5.523438 5.347656 C 6.050781 4.972656 6.523438 4.550781 6.972656 4.097656 C 8.125 2.925781 9.273438 1.773438 10.425781 0.574219 C 12.046875 -1.074219 13.773438 -2.574219 15.796875 -3.699219 C 15.921875 -3.773438 16.097656 -3.824219 16.046875 -4.023438 C 15.648438 -4.097656 15.648438 -4.097656 15.222656 -3.898438 Z M 15.222656 -3.898438 "/></g></g></g><g fill="rgb(0%, 0%, 0%)" fill-opacity="1"><g transform="translate(234.074687, 200.116408)"><g><path d="M -1.824219 7.925781 C -1.226562 7.972656 0 7.449219 0.5 6.925781 C 0.574219 6.847656 0.75 6.75 0.625 6.625 C 0.5 6.472656 0.351562 6.550781 0.25 6.648438 C -0.148438 7 -0.601562 7.222656 -1.074219 7.425781 C -2.25 7.949219 -2.925781 7.5 -2.898438 6.199219 C -2.898438 5.324219 -2.601562 4.5 -2.226562 3.699219 C -1.476562 2.101562 -0.476562 0.675781 0.476562 -0.773438 C 0.800781 -1.300781 1.101562 -1.824219 1.273438 -2.425781 C 1.375 -2.75 1.5 -3.175781 1.25 -3.398438 C 0.726562 -3.925781 1 -4.273438 1.425781 -4.648438 C 1.523438 -4.722656 1.574219 -4.875 1.625 -5.023438 C 1.675781 -5.175781 1.675781 -5.324219 1.550781 -5.425781 C 1.300781 -5.722656 0.976562 -5.875 0.574219 -5.800781 C 0.101562 -5.699219 -0.25 -5.425781 -0.375 -4.925781 C -0.476562 -4.523438 -0.351562 -4.097656 -0.0234375 -3.875 C 0.25 -3.699219 0.273438 -3.5 0.226562 -3.25 C 0.175781 -2.773438 0 -2.351562 -0.25 -1.949219 C -0.648438 -1.300781 -1.050781 -0.648438 -1.449219 -0.0234375 C -2.175781 1.101562 -2.851562 2.226562 -3.324219 3.449219 C -3.699219 4.5 -3.851562 5.550781 -3.5 6.648438 C -3.273438 7.347656 -2.550781 7.898438 -1.824219 7.925781 Z M -1.824219 7.925781 "/></g></g></g><g fill="rgb(0%, 0%, 0%)" fill-opacity="1"><g transform="translate(240.698642, 200.116408)"><g><path d="M 2 -6.023438 C 1.675781 -6.300781 1.398438 -6.300781 1.074219 -6 C 0.949219 -5.875 0.824219 -5.75 0.699219 -5.625 C -0.824219 -3.574219 -2.023438 -1.398438 -2.273438 1.199219 C -2.375 1.875 -2.351562 2.550781 -2.199219 3.226562 C -2.074219 3.75 -1.851562 4.273438 -1.5 4.722656 C -0.800781 5.550781 -0.0234375 5.648438 0.875 5.074219 C 1.023438 4.972656 1.175781 4.824219 1.324219 4.699219 C 2.601562 3.625 3.726562 2.398438 4.875 1.199219 C 6.273438 -0.273438 7.800781 -1.523438 9.648438 -2.425781 C 10.699219 -2.925781 11.699219 -3.476562 12.796875 -3.875 C 12.898438 -3.898438 13 -3.925781 12.972656 -4.050781 C 12.972656 -4.148438 12.875 -4.199219 12.773438 -4.199219 C 12.574219 -4.222656 12.421875 -4.148438 12.273438 -4.074219 C 11.699219 -3.824219 11.125 -3.574219 10.574219 -3.300781 C 9.472656 -2.773438 8.324219 -2.300781 7.273438 -1.625 C 5.75 -0.699219 4.449219 0.523438 3.226562 1.824219 C 2.523438 2.523438 1.898438 3.300781 1.074219 3.851562 C 0.601562 4.175781 0.148438 4.5 -0.449219 4.523438 C -0.898438 4.550781 -1.023438 4.449219 -1.125 4.023438 C -1.25 3.5 -1.25 2.976562 -1.199219 2.449219 C -1 0.5 -0.25 -1.273438 0.75 -2.949219 C 1.199219 -3.699219 1.675781 -4.375 2.125 -5.097656 C 2.351562 -5.472656 2.300781 -5.773438 2 -6.023438 Z M 3.148438 -7.25 C 3.375 -7.175781 3.523438 -7.324219 3.5 -7.550781 C 3.5 -7.925781 3.074219 -8.300781 2.648438 -8.347656 C 2.425781 -8.375 2.300781 -8.222656 2.375 -8 C 2.5 -7.625 2.800781 -7.375 3.148438 -7.25 Z M 3.148438 -7.25 "/></g></g></g><g fill="rgb(0%, 0%, 0%)" fill-opacity="1"><g transform="translate(253.321634, 200.116408)"><g><path d="M 2.949219 2.523438 C 2.875 2.699219 2.726562 2.898438 2.898438 3.074219 C 3.074219 3.273438 3.300781 3.226562 3.550781 3.175781 C 3.726562 3.148438 3.851562 3.023438 3.949219 2.898438 C 4.347656 2.398438 4.75 1.925781 4.949219 1.324219 C 5.023438 1.101562 5.175781 0.925781 5.324219 0.75 C 6.550781 -0.425781 7.773438 -1.601562 9.175781 -2.601562 C 9.273438 -2.675781 9.449219 -2.726562 9.375 -2.898438 C 9.300781 -3.050781 9.097656 -3.050781 8.949219 -3 C 8.800781 -2.925781 8.648438 -2.851562 8.5 -2.75 C 7.949219 -2.398438 7.425781 -2 6.925781 -1.574219 C 6.398438 -1.125 5.875 -0.675781 5.300781 -0.175781 C 4.75 -1.25 4.175781 -1.550781 3.023438 -1.425781 C 2.851562 -1.425781 2.675781 -1.375 2.5 -1.351562 C 2.199219 -1.25 1.925781 -1.175781 1.625 -1.074219 C 1.199219 -0.949219 0.773438 -0.800781 0.351562 -0.675781 C 0 -0.601562 -0.0742188 -0.699219 -0.101562 -1.023438 C -0.101562 -1.351562 -0.0234375 -1.648438 0.0742188 -1.925781 C 0.425781 -2.851562 0.851562 -3.726562 1.425781 -4.5 C 1.949219 -5.199219 2.5 -5.847656 3.324219 -6.25 C 3.875 -6.5 4.125 -6.425781 4.425781 -5.898438 C 4.597656 -5.550781 4.625 -5.175781 4.574219 -4.773438 C 4.523438 -4.347656 4.773438 -4.125 5.148438 -4.199219 C 5.398438 -4.25 5.5 -4.449219 5.523438 -4.648438 C 5.699219 -5.847656 5.425781 -6.722656 4.050781 -7.050781 C 3.25 -7.222656 2.476562 -7.050781 1.773438 -6.648438 C 1.101562 -6.25 0.550781 -5.699219 0.0742188 -5.074219 C -0.625 -4.097656 -1.148438 -3.050781 -1.5 -1.925781 C -1.773438 -0.976562 -1.375 -0.324219 -0.425781 -0.101562 C -0.375 -0.101562 -0.300781 -0.101562 -0.25 -0.0742188 C 0.375 0.0507812 0.976562 -0.0742188 1.574219 -0.273438 C 2.148438 -0.476562 2.75 -0.625 3.375 -0.773438 C 3.601562 -0.824219 3.773438 -0.75 3.898438 -0.523438 C 4.25 0.0507812 4.175781 0.949219 3.675781 1.425781 C 3.324219 1.75 3.101562 2.101562 2.949219 2.523438 Z M 2.949219 2.523438 "/></g></g></g><g fill="rgb(0%, 0%, 0%)" fill-opacity="1"><g transform="translate(262.995096, 200.116408)"><g><path d="M 13 -3.972656 C 12.773438 -4.222656 12.574219 -4.148438 12.375 -4.074219 C 12.046875 -3.925781 11.722656 -3.773438 11.425781 -3.574219 C 9.5 -2.324219 7.597656 -1.050781 5.75 0.351562 C 4.449219 1.351562 3.175781 2.425781 1.648438 3.125 C 0.574219 3.601562 -0.226562 3.125 -0.351562 1.949219 C -0.375 1.699219 -0.375 1.449219 -0.351562 1.199219 C -0.148438 -0.601562 0.226562 -2.375 0.898438 -4.023438 C 3.601562 -10.574219 7 -16.699219 10.925781 -22.574219 C 11.125 -22.847656 11.324219 -22.871094 11.597656 -22.824219 C 12.972656 -22.546875 14.324219 -22.273438 15.671875 -22.023438 C 19.746094 -21.296875 23.824219 -20.722656 27.945312 -21.347656 C 29.246094 -21.523438 30.621094 -21.648438 31.445312 -22.921875 C 31.496094 -23.046875 31.722656 -23.097656 31.597656 -23.273438 C 31.496094 -23.398438 31.320312 -23.371094 31.195312 -23.324219 C 30.972656 -23.246094 30.773438 -23.121094 30.648438 -22.921875 C 30.523438 -22.722656 30.371094 -22.574219 30.171875 -22.496094 C 29.621094 -22.347656 29.121094 -22.121094 28.570312 -22.046875 C 26.496094 -21.699219 24.421875 -21.597656 22.347656 -21.671875 C 18.773438 -21.796875 15.324219 -22.546875 11.847656 -23.222656 C 11.472656 -23.324219 11.523438 -23.449219 11.699219 -23.699219 C 12.222656 -24.449219 12.773438 -25.222656 13.296875 -25.996094 C 13.421875 -26.199219 13.648438 -26.421875 13.449219 -26.671875 C 13.273438 -26.898438 12.972656 -26.972656 12.671875 -26.949219 C 12.375 -26.898438 12.199219 -26.699219 12.023438 -26.496094 C 11.375 -25.699219 10.773438 -24.847656 10.222656 -23.996094 C 10.050781 -23.722656 9.875 -23.671875 9.574219 -23.722656 C 8.375 -23.972656 7.199219 -24.199219 6.023438 -24.398438 C 2.601562 -24.972656 -0.824219 -25.171875 -4.273438 -24.722656 C -5.847656 -24.523438 -7.398438 -24.171875 -8.824219 -23.449219 C -9.324219 -23.171875 -9.800781 -22.898438 -10.050781 -22.347656 C -10.25 -21.996094 -10.074219 -21.699219 -9.625 -21.546875 C -9.375 -21.472656 -9.023438 -21.296875 -9.125 -21.871094 C -9.148438 -21.949219 -9 -22.046875 -8.898438 -22.148438 C -8.425781 -22.597656 -7.847656 -22.898438 -7.222656 -23.097656 C -6.375 -23.398438 -5.472656 -23.648438 -4.574219 -23.796875 C 0.0742188 -24.523438 4.699219 -24.121094 9.300781 -23.246094 C 9.773438 -23.171875 9.523438 -22.972656 9.425781 -22.773438 C 8.675781 -21.621094 7.949219 -20.472656 7.222656 -19.324219 C 4.699219 -15.324219 2.199219 -11.273438 0.398438 -6.875 C -0.625 -4.398438 -1.273438 -1.800781 -1.375 0.898438 C -1.449219 3.125 0.300781 4.273438 2.324219 3.300781 C 3.023438 2.949219 3.699219 2.523438 4.347656 2.074219 C 7.222656 0.0742188 9.949219 -2.199219 13 -3.972656 Z M 13 -3.972656 "/></g></g></g><g fill="rgb(0%, 0%, 0%)" fill-opacity="1"><g transform="translate(275.343133, 200.116408)"><g><path d="M 4.800781 1.023438 C 7.148438 0.148438 12 -3.550781 16.671875 -4.175781 C 16.523438 -4.5 16.296875 -4.5 16.097656 -4.5 C 12.023438 -4.050781 6.675781 -0.523438 5.097656 0.226562 C 4.398438 0.550781 3.675781 0.773438 2.875 0.851562 C 2.300781 0.898438 1.773438 0.773438 1.375 0.300781 C 0.425781 -0.925781 0.351562 -2.199219 0.976562 -3.574219 C 1.101562 -3.851562 1.25 -4 1.601562 -3.898438 C 2.074219 -3.773438 2.550781 -3.800781 3.023438 -3.949219 C 4 -4.273438 4.800781 -4.875 5.523438 -5.574219 C 5.648438 -5.699219 5.722656 -5.824219 5.800781 -5.972656 C 6 -6.375 5.925781 -6.773438 5.550781 -7.050781 C 4.949219 -7.472656 4.300781 -7.722656 3.574219 -7.5 C 1.699219 -6.949219 0.273438 -5.847656 -0.425781 -3.972656 C -0.851562 -2.824219 -0.726562 -1.726562 -0.125 -0.726562 C 1.101562 1.273438 2.550781 1.875 4.800781 1.023438 Z M 4.75 -6.550781 C 4.449219 -5.625 2.824219 -4.597656 1.824219 -4.699219 C 2.226562 -5.574219 3.851562 -6.597656 4.75 -6.550781 Z M 4.75 -6.550781 "/></g></g></g><g fill="rgb(0%, 0%, 0%)" fill-opacity="1"><g transform="translate(291.640548, 200.116408)"><g><path d="M 16.125 -4.722656 C 16.023438 -4.722656 15.921875 -4.675781 15.847656 -4.648438 C 14.875 -4.175781 13.898438 -3.675781 12.972656 -3.125 C 11.675781 -2.324219 10.375 -1.523438 8.972656 -0.851562 C 8.273438 -0.523438 7.550781 -0.148438 6.773438 -0.0234375 C 5.949219 0.101562 5.773438 -0.0742188 5.847656 -0.875 C 5.847656 -0.925781 5.847656 -1 5.847656 -1.050781 C 5.949219 -1.675781 6.148438 -2.25 6.425781 -2.800781 C 6.800781 -3.601562 7.199219 -4.375 7.597656 -5.148438 C 7.800781 -5.550781 7.949219 -5.949219 8.074219 -6.375 C 8.222656 -6.949219 8 -7.398438 7.574219 -7.773438 C 7.148438 -8.125 6.75 -7.972656 6.347656 -7.75 C 5.898438 -7.5 5.523438 -7.175781 5.148438 -6.824219 C 3.800781 -5.625 2.523438 -4.347656 1.273438 -3.074219 C 1.050781 -2.824219 0.824219 -2.601562 0.425781 -2.5 C 0.449219 -2.851562 0.574219 -3.125 0.699219 -3.398438 C 1.023438 -4.125 1.449219 -4.800781 1.898438 -5.449219 C 2.324219 -6 2.199219 -6.5 1.648438 -6.847656 C 1.398438 -7 1.199219 -7 1 -6.800781 C -0.0507812 -5.773438 -0.699219 -4.574219 -0.648438 -3.050781 C -0.625 -2.574219 -0.449219 -2.175781 -0.148438 -1.824219 C 0.199219 -1.425781 0.523438 -1.375 0.949219 -1.699219 C 1.125 -1.824219 1.300781 -1.949219 1.449219 -2.101562 C 2.675781 -3.324219 3.824219 -4.648438 5.148438 -5.773438 C 5.699219 -6.25 6.222656 -6.699219 7.050781 -6.972656 C 6.722656 -6.175781 6.300781 -5.550781 5.925781 -4.925781 C 5.222656 -3.726562 4.925781 -2.449219 5.050781 -1.101562 C 5.148438 0.0507812 6.023438 1.074219 7.5 0.550781 C 8.324219 0.25 9.125 -0.101562 9.875 -0.523438 C 11.324219 -1.300781 12.671875 -2.175781 14.074219 -3 C 14.796875 -3.398438 15.5 -3.800781 16.199219 -4.199219 C 16.296875 -4.273438 16.472656 -4.300781 16.421875 -4.5 C 16.375 -4.625 16.273438 -4.722656 16.125 -4.722656 Z M 16.125 -4.722656 "/></g></g></g><g fill="rgb(0%, 0%, 0%)" fill-opacity="1"><g transform="translate(307.388053, 200.116408)"><g><path d="M 2.949219 2.523438 C 2.875 2.699219 2.726562 2.898438 2.898438 3.074219 C 3.074219 3.273438 3.300781 3.226562 3.550781 3.175781 C 3.726562 3.148438 3.851562 3.023438 3.949219 2.898438 C 4.347656 2.398438 4.75 1.925781 4.949219 1.324219 C 5.023438 1.101562 5.175781 0.925781 5.324219 0.75 C 6.550781 -0.425781 7.773438 -1.601562 9.175781 -2.601562 C 9.273438 -2.675781 9.449219 -2.726562 9.375 -2.898438 C 9.300781 -3.050781 9.097656 -3.050781 8.949219 -3 C 8.800781 -2.925781 8.648438 -2.851562 8.5 -2.75 C 7.949219 -2.398438 7.425781 -2 6.925781 -1.574219 C 6.398438 -1.125 5.875 -0.675781 5.300781 -0.175781 C 4.75 -1.25 4.175781 -1.550781 3.023438 -1.425781 C 2.851562 -1.425781 2.675781 -1.375 2.5 -1.351562 C 2.199219 -1.25 1.925781 -1.175781 1.625 -1.074219 C 1.199219 -0.949219 0.773438 -0.800781 0.351562 -0.675781 C 0 -0.601562 -0.0742188 -0.699219 -0.101562 -1.023438 C -0.101562 -1.351562 -0.0234375 -1.648438 0.0742188 -1.925781 C 0.425781 -2.851562 0.851562 -3.726562 1.425781 -4.5 C 1.949219 -5.199219 2.5 -5.847656 3.324219 -6.25 C 3.875 -6.5 4.125 -6.425781 4.425781 -5.898438 C 4.597656 -5.550781 4.625 -5.175781 4.574219 -4.773438 C 4.523438 -4.347656 4.773438 -4.125 5.148438 -4.199219 C 5.398438 -4.25 5.5 -4.449219 5.523438 -4.648438 C 5.699219 -5.847656 5.425781 -6.722656 4.050781 -7.050781 C 3.25 -7.222656 2.476562 -7.050781 1.773438 -6.648438 C 1.101562 -6.25 0.550781 -5.699219 0.0742188 -5.074219 C -0.625 -4.097656 -1.148438 -3.050781 -1.5 -1.925781 C -1.773438 -0.976562 -1.375 -0.324219 -0.425781 -0.101562 C -0.375 -0.101562 -0.300781 -0.101562 -0.25 -0.0742188 C 0.375 0.0507812 0.976562 -0.0742188 1.574219 -0.273438 C 2.148438 -0.476562 2.75 -0.625 3.375 -0.773438 C 3.601562 -0.824219 3.773438 -0.75 3.898438 -0.523438 C 4.25 0.0507812 4.175781 0.949219 3.675781 1.425781 C 3.324219 1.75 3.101562 2.101562 2.949219 2.523438 Z M 2.949219 2.523438 "/></g></g></g><g fill="rgb(0%, 0%, 0%)" fill-opacity="1"><g transform="translate(317.061514, 200.116408)"><g><path d="M 1.550781 -2.226562 C 1.574219 -2.273438 1.601562 -2.300781 1.625 -2.351562 C 2.175781 -2.898438 2.550781 -3.550781 2.851562 -4.273438 C 3.125 -4.925781 3.273438 -5.597656 3.199219 -6.324219 C 3.074219 -7.449219 2.175781 -8.175781 1.050781 -8.023438 C 0.101562 -7.898438 -0.675781 -7.449219 -1.25 -6.699219 C -1.550781 -6.324219 -1.75 -5.898438 -1.773438 -5.425781 C -1.800781 -4.675781 -1.625 -3.972656 -1.226562 -3.351562 C -1.074219 -3.125 -1.074219 -2.976562 -1.199219 -2.75 C -1.425781 -2.351562 -1.574219 -1.925781 -1.574219 -1.449219 C -1.550781 -0.675781 -0.851562 -0.273438 -0.199219 -0.675781 C -0.125 -0.699219 -0.0742188 -0.75 0 -0.800781 C 0.324219 -1.050781 0.675781 -1.300781 0.976562 -1.601562 C 1.074219 -1.699219 1.148438 -1.75 1.300781 -1.726562 C 2.75 -1.148438 6.5 -2.148438 9.925781 -4.273438 C 9.847656 -4.300781 9.675781 -4.425781 9.472656 -4.300781 C 7.773438 -3.300781 4.925781 -2.425781 4.449219 -2.324219 C 2.5 -1.949219 1.523438 -2.101562 1.523438 -2.101562 C 1.550781 -2.199219 1.550781 -2.226562 1.550781 -2.226562 Z M 0.226562 -1.851562 C -0.0742188 -1.523438 -0.375 -1.226562 -0.824219 -1.101562 C -0.875 -1.148438 -0.875 -1.199219 -0.851562 -1.273438 C -0.773438 -1.601562 -0.648438 -1.925781 -0.476562 -2.226562 C -0.398438 -2.351562 -0.324219 -2.375 -0.199219 -2.273438 C -0.0742188 -2.199219 0.0507812 -2.125 0.199219 -2.050781 C 0.273438 -2 0.300781 -1.925781 0.226562 -1.851562 Z M 0.875 -2.574219 C 0.824219 -2.523438 0.800781 -2.449219 0.75 -2.425781 C 0.675781 -2.398438 0.675781 -2.398438 0.425781 -2.523438 C -0.226562 -2.851562 -0.101562 -2.800781 0.101562 -3.101562 C 0.375 -3.449219 0.699219 -3.75 1.023438 -4.023438 C 1.351562 -4.300781 1.375 -4.347656 1.199219 -4.597656 C 0.976562 -4.925781 0.675781 -5 0.398438 -4.824219 C 0.101562 -4.625 -0.125 -4.398438 -0.324219 -4.125 C -0.476562 -3.925781 -0.648438 -3.699219 -0.824219 -3.449219 C -1.800781 -4.75 -0.648438 -7.222656 1.25 -7.097656 C 1.25 -7.097656 2.476562 -6.949219 2.101562 -5.148438 C 1.898438 -4.199219 1.523438 -3.300781 0.875 -2.574219 Z M 0.875 -2.574219 "/></g></g></g><g fill="rgb(0%, 0%, 0%)" fill-opacity="1"><g transform="translate(326.460042, 200.116408)"><g><path d="M 16.125 -4.722656 C 16.023438 -4.722656 15.921875 -4.675781 15.847656 -4.648438 C 14.875 -4.175781 13.898438 -3.675781 12.972656 -3.125 C 11.675781 -2.324219 10.375 -1.523438 8.972656 -0.851562 C 8.273438 -0.523438 7.550781 -0.148438 6.773438 -0.0234375 C 5.949219 0.101562 5.773438 -0.0742188 5.847656 -0.875 C 5.847656 -0.925781 5.847656 -1 5.847656 -1.050781 C 5.949219 -1.675781 6.148438 -2.25 6.425781 -2.800781 C 6.800781 -3.601562 7.199219 -4.375 7.597656 -5.148438 C 7.800781 -5.550781 7.949219 -5.949219 8.074219 -6.375 C 8.222656 -6.949219 8 -7.398438 7.574219 -7.773438 C 7.148438 -8.125 6.75 -7.972656 6.347656 -7.75 C 5.898438 -7.5 5.523438 -7.175781 5.148438 -6.824219 C 3.800781 -5.625 2.523438 -4.347656 1.273438 -3.074219 C 1.050781 -2.824219 0.824219 -2.601562 0.425781 -2.5 C 0.449219 -2.851562 0.574219 -3.125 0.699219 -3.398438 C 1.023438 -4.125 1.449219 -4.800781 1.898438 -5.449219 C 2.324219 -6 2.199219 -6.5 1.648438 -6.847656 C 1.398438 -7 1.199219 -7 1 -6.800781 C -0.0507812 -5.773438 -0.699219 -4.574219 -0.648438 -3.050781 C -0.625 -2.574219 -0.449219 -2.175781 -0.148438 -1.824219 C 0.199219 -1.425781 0.523438 -1.375 0.949219 -1.699219 C 1.125 -1.824219 1.300781 -1.949219 1.449219 -2.101562 C 2.675781 -3.324219 3.824219 -4.648438 5.148438 -5.773438 C 5.699219 -6.25 6.222656 -6.699219 7.050781 -6.972656 C 6.722656 -6.175781 6.300781 -5.550781 5.925781 -4.925781 C 5.222656 -3.726562 4.925781 -2.449219 5.050781 -1.101562 C 5.148438 0.0507812 6.023438 1.074219 7.5 0.550781 C 8.324219 0.25 9.125 -0.101562 9.875 -0.523438 C 11.324219 -1.300781 12.671875 -2.175781 14.074219 -3 C 14.796875 -3.398438 15.5 -3.800781 16.199219 -4.199219 C 16.296875 -4.273438 16.472656 -4.300781 16.421875 -4.5 C 16.375 -4.625 16.273438 -4.722656 16.125 -4.722656 Z M 16.125 -4.722656 "/></g></g></g><g clip-path="url(#id12)"><path fill="rgb(0%, 0%, 0%)" d="M 187.457031 293.777344 C 156.550781 293.777344 128.570312 281.222656 108.320312 260.925781 C 96.230469 248.808594 86.894531 233.929688 81.332031 217.316406 L 82.960938 217.316406 C 88.464844 233.5 97.609375 248 109.410156 259.828125 C 129.382812 279.847656 156.976562 292.226562 187.457031 292.226562 C 217.933594 292.226562 245.527344 279.847656 265.5 259.828125 C 277.304688 248 286.445312 233.5 291.953125 217.316406 L 293.582031 217.316406 C 288.019531 233.929688 278.683594 248.804688 266.59375 260.925781 C 246.339844 281.222656 218.363281 293.777344 187.457031 293.777344 Z M 187.457031 293.777344 " fill-opacity="1" fill-rule="evenodd"/></g><g fill="rgb(0%, 0%, 0%)" fill-opacity="1"><g transform="translate(123.419509, 252.665165)"><g><path d="M 0.96875 0 L 0.96875 -7.671875 L 4.140625 -7.671875 C 4.472656 -7.671875 4.773438 -7.597656 5.046875 -7.453125 C 5.328125 -7.316406 5.566406 -7.132812 5.765625 -6.90625 C 5.972656 -6.6875 6.132812 -6.429688 6.25 -6.140625 C 6.363281 -5.847656 6.421875 -5.554688 6.421875 -5.265625 C 6.421875 -4.953125 6.363281 -4.648438 6.25 -4.359375 C 6.144531 -4.066406 5.992188 -3.804688 5.796875 -3.578125 C 5.609375 -3.359375 5.378906 -3.175781 5.109375 -3.03125 C 4.835938 -2.894531 4.535156 -2.828125 4.203125 -2.828125 L 1.71875 -2.828125 L 1.71875 0 Z M 1.71875 -3.5 L 4.171875 -3.5 C 4.398438 -3.5 4.601562 -3.546875 4.78125 -3.640625 C 4.96875 -3.742188 5.125 -3.875 5.25 -4.03125 C 5.382812 -4.195312 5.488281 -4.382812 5.5625 -4.59375 C 5.632812 -4.8125 5.671875 -5.035156 5.671875 -5.265625 C 5.671875 -5.503906 5.628906 -5.726562 5.546875 -5.9375 C 5.460938 -6.15625 5.347656 -6.34375 5.203125 -6.5 C 5.066406 -6.65625 4.898438 -6.773438 4.703125 -6.859375 C 4.515625 -6.953125 4.316406 -7 4.109375 -7 L 1.71875 -7 Z M 1.71875 -3.5 "/></g></g></g><g fill="rgb(0%, 0%, 0%)" fill-opacity="1"><g transform="translate(134.472457, 252.665165)"><g><path d="M 0.96875 0 L 0.96875 -7.671875 L 4.203125 -7.671875 C 4.535156 -7.671875 4.835938 -7.597656 5.109375 -7.453125 C 5.390625 -7.316406 5.628906 -7.132812 5.828125 -6.90625 C 6.035156 -6.6875 6.195312 -6.429688 6.3125 -6.140625 C 6.425781 -5.847656 6.484375 -5.554688 6.484375 -5.265625 C 6.484375 -4.984375 6.441406 -4.710938 6.359375 -4.453125 C 6.273438 -4.203125 6.15625 -3.972656 6 -3.765625 C 5.851562 -3.554688 5.675781 -3.378906 5.46875 -3.234375 C 5.257812 -3.097656 5.023438 -3.007812 4.765625 -2.96875 L 6.65625 0 L 5.796875 0 L 3.984375 -2.828125 L 1.71875 -2.828125 L 1.71875 0 Z M 1.71875 -3.5 L 4.234375 -3.5 C 4.453125 -3.5 4.648438 -3.546875 4.828125 -3.640625 C 5.015625 -3.742188 5.171875 -3.878906 5.296875 -4.046875 C 5.429688 -4.210938 5.535156 -4.398438 5.609375 -4.609375 C 5.679688 -4.816406 5.71875 -5.035156 5.71875 -5.265625 C 5.71875 -5.492188 5.675781 -5.710938 5.59375 -5.921875 C 5.507812 -6.140625 5.394531 -6.328125 5.25 -6.484375 C 5.113281 -6.640625 4.945312 -6.765625 4.75 -6.859375 C 4.5625 -6.953125 4.363281 -7 4.15625 -7 L 1.71875 -7 Z M 1.71875 -3.5 "/></g></g></g><g fill="rgb(0%, 0%, 0%)" fill-opacity="1"><g transform="translate(145.86065, 252.665165)"><g><path d="M 4.0625 0.046875 C 3.519531 0.046875 3.023438 -0.0625 2.578125 -0.28125 C 2.140625 -0.5 1.757812 -0.789062 1.4375 -1.15625 C 1.125 -1.519531 0.878906 -1.9375 0.703125 -2.40625 C 0.535156 -2.875 0.453125 -3.351562 0.453125 -3.84375 C 0.453125 -4.351562 0.539062 -4.84375 0.71875 -5.3125 C 0.90625 -5.78125 1.160156 -6.191406 1.484375 -6.546875 C 1.816406 -6.910156 2.203125 -7.195312 2.640625 -7.40625 C 3.078125 -7.625 3.550781 -7.734375 4.0625 -7.734375 C 4.59375 -7.734375 5.082031 -7.617188 5.53125 -7.390625 C 5.976562 -7.160156 6.359375 -6.863281 6.671875 -6.5 C 6.984375 -6.132812 7.222656 -5.71875 7.390625 -5.25 C 7.566406 -4.78125 7.65625 -4.304688 7.65625 -3.828125 C 7.65625 -3.316406 7.5625 -2.828125 7.375 -2.359375 C 7.195312 -1.890625 6.945312 -1.472656 6.625 -1.109375 C 6.300781 -0.753906 5.921875 -0.472656 5.484375 -0.265625 C 5.046875 -0.0546875 4.570312 0.046875 4.0625 0.046875 Z M 1.21875 -3.84375 C 1.21875 -3.425781 1.285156 -3.019531 1.421875 -2.625 C 1.554688 -2.238281 1.75 -1.894531 2 -1.59375 C 2.25 -1.300781 2.546875 -1.066406 2.890625 -0.890625 C 3.242188 -0.710938 3.632812 -0.625 4.0625 -0.625 C 4.488281 -0.625 4.878906 -0.71875 5.234375 -0.90625 C 5.585938 -1.09375 5.882812 -1.335938 6.125 -1.640625 C 6.375 -1.941406 6.5625 -2.285156 6.6875 -2.671875 C 6.820312 -3.054688 6.890625 -3.445312 6.890625 -3.84375 C 6.890625 -4.257812 6.820312 -4.660156 6.6875 -5.046875 C 6.550781 -5.429688 6.351562 -5.769531 6.09375 -6.0625 C 5.84375 -6.363281 5.546875 -6.597656 5.203125 -6.765625 C 4.859375 -6.941406 4.476562 -7.03125 4.0625 -7.03125 C 3.625 -7.03125 3.226562 -6.9375 2.875 -6.75 C 2.519531 -6.570312 2.21875 -6.332031 1.96875 -6.03125 C 1.726562 -5.726562 1.539062 -5.382812 1.40625 -5 C 1.28125 -4.625 1.21875 -4.238281 1.21875 -3.84375 Z M 1.21875 -3.84375 "/></g></g></g><g fill="rgb(0%, 0%, 0%)" fill-opacity="1"><g transform="translate(158.308569, 252.665165)"><g><path d="M 0.96875 0 L 0.96875 -7.671875 L 6 -7.671875 L 6 -7 L 1.71875 -7 L 1.71875 -4.1875 L 5.328125 -4.1875 L 5.328125 -3.5625 L 1.71875 -3.5625 L 1.71875 0 Z M 0.96875 0 "/></g></g></g><g fill="rgb(0%, 0%, 0%)" fill-opacity="1"><g transform="translate(169.004682, 252.665165)"><g><path d="M 0.96875 0 L 0.96875 -7.671875 L 6 -7.671875 L 6 -7 L 1.71875 -7 L 1.71875 -4.1875 L 5.328125 -4.1875 L 5.328125 -3.5625 L 1.71875 -3.5625 L 1.71875 0 Z M 0.96875 0 "/></g></g></g><g fill="rgb(0%, 0%, 0%)" fill-opacity="1"><g transform="translate(179.700795, 252.665165)"><g><path d="M 6.125 -0.671875 L 6.125 0 L 0.96875 0 L 0.96875 -7.671875 L 6.015625 -7.671875 L 6.015625 -7 L 1.71875 -7 L 1.71875 -4.234375 L 5.46875 -4.234375 L 5.46875 -3.59375 L 1.71875 -3.59375 L 1.71875 -0.671875 Z M 6.125 -0.671875 "/></g></g></g><g fill="rgb(0%, 0%, 0%)" fill-opacity="1"><g transform="translate(190.613162, 252.665165)"><g><path d="M 5.453125 -6.234375 C 5.234375 -6.484375 4.941406 -6.679688 4.578125 -6.828125 C 4.222656 -6.984375 3.816406 -7.0625 3.359375 -7.0625 C 2.671875 -7.0625 2.171875 -6.929688 1.859375 -6.671875 C 1.554688 -6.421875 1.40625 -6.078125 1.40625 -5.640625 C 1.40625 -5.398438 1.445312 -5.207031 1.53125 -5.0625 C 1.613281 -4.914062 1.738281 -4.785156 1.90625 -4.671875 C 2.082031 -4.566406 2.304688 -4.472656 2.578125 -4.390625 C 2.847656 -4.316406 3.164062 -4.238281 3.53125 -4.15625 C 3.945312 -4.070312 4.316406 -3.972656 4.640625 -3.859375 C 4.972656 -3.753906 5.253906 -3.617188 5.484375 -3.453125 C 5.710938 -3.296875 5.890625 -3.101562 6.015625 -2.875 C 6.140625 -2.644531 6.203125 -2.359375 6.203125 -2.015625 C 6.203125 -1.660156 6.128906 -1.351562 5.984375 -1.09375 C 5.847656 -0.832031 5.65625 -0.613281 5.40625 -0.4375 C 5.164062 -0.269531 4.875 -0.144531 4.53125 -0.0625 C 4.195312 0.0195312 3.828125 0.0625 3.421875 0.0625 C 2.234375 0.0625 1.207031 -0.304688 0.34375 -1.046875 L 0.71875 -1.671875 C 0.863281 -1.523438 1.03125 -1.382812 1.21875 -1.25 C 1.40625 -1.125 1.613281 -1.007812 1.84375 -0.90625 C 2.082031 -0.8125 2.332031 -0.738281 2.59375 -0.6875 C 2.863281 -0.632812 3.148438 -0.609375 3.453125 -0.609375 C 4.066406 -0.609375 4.539062 -0.71875 4.875 -0.9375 C 5.21875 -1.15625 5.390625 -1.488281 5.390625 -1.9375 C 5.390625 -2.175781 5.34375 -2.375 5.25 -2.53125 C 5.15625 -2.695312 5.007812 -2.835938 4.8125 -2.953125 C 4.613281 -3.078125 4.367188 -3.179688 4.078125 -3.265625 C 3.796875 -3.347656 3.460938 -3.4375 3.078125 -3.53125 C 2.671875 -3.625 2.316406 -3.71875 2.015625 -3.8125 C 1.710938 -3.914062 1.457031 -4.039062 1.25 -4.1875 C 1.039062 -4.34375 0.882812 -4.523438 0.78125 -4.734375 C 0.675781 -4.953125 0.625 -5.21875 0.625 -5.53125 C 0.625 -5.882812 0.691406 -6.195312 0.828125 -6.46875 C 0.960938 -6.75 1.148438 -6.976562 1.390625 -7.15625 C 1.640625 -7.34375 1.925781 -7.484375 2.25 -7.578125 C 2.582031 -7.679688 2.953125 -7.734375 3.359375 -7.734375 C 3.867188 -7.734375 4.320312 -7.65625 4.71875 -7.5 C 5.125 -7.34375 5.488281 -7.125 5.8125 -6.84375 Z M 5.453125 -6.234375 "/></g></g></g><g fill="rgb(0%, 0%, 0%)" fill-opacity="1"><g transform="translate(201.503907, 252.665165)"><g><path d="M 0.96875 0 L 0.96875 -7.671875 L 1.71875 -7.671875 L 1.71875 0 Z M 0.96875 0 "/></g></g></g><g fill="rgb(0%, 0%, 0%)" fill-opacity="1"><g transform="translate(208.512541, 252.665165)"><g><path d="M 4.0625 0.046875 C 3.519531 0.046875 3.023438 -0.0625 2.578125 -0.28125 C 2.140625 -0.5 1.757812 -0.789062 1.4375 -1.15625 C 1.125 -1.519531 0.878906 -1.9375 0.703125 -2.40625 C 0.535156 -2.875 0.453125 -3.351562 0.453125 -3.84375 C 0.453125 -4.351562 0.539062 -4.84375 0.71875 -5.3125 C 0.90625 -5.78125 1.160156 -6.191406 1.484375 -6.546875 C 1.816406 -6.910156 2.203125 -7.195312 2.640625 -7.40625 C 3.078125 -7.625 3.550781 -7.734375 4.0625 -7.734375 C 4.59375 -7.734375 5.082031 -7.617188 5.53125 -7.390625 C 5.976562 -7.160156 6.359375 -6.863281 6.671875 -6.5 C 6.984375 -6.132812 7.222656 -5.71875 7.390625 -5.25 C 7.566406 -4.78125 7.65625 -4.304688 7.65625 -3.828125 C 7.65625 -3.316406 7.5625 -2.828125 7.375 -2.359375 C 7.195312 -1.890625 6.945312 -1.472656 6.625 -1.109375 C 6.300781 -0.753906 5.921875 -0.472656 5.484375 -0.265625 C 5.046875 -0.0546875 4.570312 0.046875 4.0625 0.046875 Z M 1.21875 -3.84375 C 1.21875 -3.425781 1.285156 -3.019531 1.421875 -2.625 C 1.554688 -2.238281 1.75 -1.894531 2 -1.59375 C 2.25 -1.300781 2.546875 -1.066406 2.890625 -0.890625 C 3.242188 -0.710938 3.632812 -0.625 4.0625 -0.625 C 4.488281 -0.625 4.878906 -0.71875 5.234375 -0.90625 C 5.585938 -1.09375 5.882812 -1.335938 6.125 -1.640625 C 6.375 -1.941406 6.5625 -2.285156 6.6875 -2.671875 C 6.820312 -3.054688 6.890625 -3.445312 6.890625 -3.84375 C 6.890625 -4.257812 6.820312 -4.660156 6.6875 -5.046875 C 6.550781 -5.429688 6.351562 -5.769531 6.09375 -6.0625 C 5.84375 -6.363281 5.546875 -6.597656 5.203125 -6.765625 C 4.859375 -6.941406 4.476562 -7.03125 4.0625 -7.03125 C 3.625 -7.03125 3.226562 -6.9375 2.875 -6.75 C 2.519531 -6.570312 2.21875 -6.332031 1.96875 -6.03125 C 1.726562 -5.726562 1.539062 -5.382812 1.40625 -5 C 1.28125 -4.625 1.21875 -4.238281 1.21875 -3.84375 Z M 1.21875 -3.84375 "/></g></g></g><g fill="rgb(0%, 0%, 0%)" fill-opacity="1"><g transform="translate(220.960459, 252.665165)"><g><path d="M 1.71875 -6.265625 L 1.71875 0 L 0.96875 0 L 0.96875 -7.671875 L 1.546875 -7.671875 L 6.625 -1.28125 L 6.625 -7.671875 L 7.390625 -7.671875 L 7.390625 0 L 6.71875 0 Z M 1.71875 -6.265625 "/></g></g></g><g fill="rgb(0%, 0%, 0%)" fill-opacity="1"><g transform="translate(233.635487, 252.665165)"><g><path d="M 3.34375 -7.671875 L 3.984375 -7.671875 L 7.171875 0 L 6.375 0 L 5.375 -2.40625 L 1.921875 -2.40625 L 0.9375 0 L 0.125 0 Z M 5.203125 -3 L 3.65625 -6.796875 L 2.09375 -3 Z M 5.203125 -3 "/></g></g></g><g fill="rgb(0%, 0%, 0%)" fill-opacity="1"><g transform="translate(245.272381, 252.665165)"><g><path d="M 0.96875 0 L 0.96875 -7.671875 L 1.71875 -7.671875 L 1.71875 -0.671875 L 6.15625 -0.671875 L 6.15625 0 Z M 0.96875 0 "/></g></g></g></svg>